<?xml version="1.0" encoding="UTF-8"?>
<svg viewBox="0 0 320 320" version="1.1" xmlns="http://www.w3.org/2000/svg" xmlns:xlink="http://www.w3.org/1999/xlink"
style="fill:#fff;
  stroke:#fff;
  stroke-miterlimit:10;">
    <!-- Generator: Sketch 50.2 (55047) - http://www.bohemiancoding.com/sketch -->
    <title>Artboard</title>
    <desc>Created with Sketch.</desc>
    <defs></defs>
    <g id="Artboard" >
        <g id="logo" transform="translate(26.000000, 67.000000)" >
            <polygon class="cls-1" id="Shape" points="198.004874 139 169 187 198.004874 187 227 139 198.004874 91 169 91 198.004874 139"></polygon>
            <polygon class="cls-1" id="Shape" points="127 91 155.995126 139 127 187 155.995126 187 185 139 155.995126 91 127 91"></polygon>
            <polygon class="cls-1" id="Shape" points="269 139 240.002437 91 211 91 240.002437 139 211 187 240.002437 187 269 139"></polygon>
            <path class="cls-1" d="M116.722337,181.323336 L142.183648,138.971538 L116.722337,96.6148877 L106.744452,79.9875979 L186,79.9875979 C179.446708,34.7586529 140.558665,0 93.5068979,0 C41.8663711,0 0,41.8617612 0,93.5048518 C0,145.147943 41.8663711,187 93.5068979,187 C100.681859,186.995217 107.832265,186.161646 114.816013,184.515853 L116.722337,181.342743 L116.722337,181.323336 Z M97.7658104,110.093327 C95.5727744,111.248013 93.0092159,111.477758 90.6458909,110.731412 C88.2825658,109.985065 86.3156641,108.324584 85.1831008,106.119662 L64.1262225,61.2740128 C62.7882162,58.6581488 63.7434299,55.4523075 66.2948178,53.9958796 C68.8462057,52.5394517 72.0915766,53.3474418 73.662694,55.8302371 L101.79674,97.3184059 C104.182823,101.961857 102.384492,107.661172 97.7658104,110.093327 Z" id="Shape"></path>
        </g>
    </g>
</svg>
