<svg width="30" height="30" viewBox="0 0 30 30" fill="none" xmlns="http://www.w3.org/2000/svg">
    <path fill-rule="evenodd" clip-rule="evenodd"
          d="M14.8656 0.683594C10.0789 0.683935 5.39488 3.03317 2.63957 7.32875C1.67074 8.83946 1.02634 10.4616 0.682617 12.1158L3.40073 12.5804C3.68211 11.2698 4.19873 9.98612 4.96574 8.79037C7.12659 5.42195 10.8273 3.41085 14.8656 3.41051C17.0812 3.41051 19.2465 4.03565 21.128 5.21777C26.5794 8.64278 28.1985 15.8187 24.7378 21.2135C22.577 24.5819 18.8763 26.593 14.838 26.593C12.6224 26.593 10.4571 25.9682 8.57554 24.7861C7.70038 24.2363 6.93062 23.5856 6.25867 22.8653L4.17635 24.6535C5.0205 25.5674 5.99175 26.3926 7.09869 27.0883C9.50304 28.599 12.1864 29.32 14.838 29.32C19.6247 29.32 24.3087 26.9704 27.064 22.6751C31.3457 16 29.3495 7.15354 22.6049 2.91557C20.2005 1.40486 17.5172 0.683594 14.8656 0.683594Z"
          fill="#008BCC">
        <animateTransform
                attributeName="transform"
                attributeType="XML"
                type="rotate"
                dur="1s"
                from="0 15 15"
                to="360 15 15"
                repeatCount="indefinite"/>
    </path>
</svg>
