<?xml version="1.0" standalone="no"?>
<!DOCTYPE svg PUBLIC "-//W3C//DTD SVG 20010904//EN"
 "http://www.w3.org/TR/2001/REC-SVG-20010904/DTD/svg10.dtd">
<svg version="1.0" xmlns="http://www.w3.org/2000/svg"
 width="555.000000pt" height="555.000000pt" viewBox="0 0 555.000000 555.000000"
 preserveAspectRatio="xMidYMid meet">
<metadata>
Created by potrace 1.11, written by Peter Selinger 2001-2013
</metadata>
<g transform="translate(0.000000,555.000000) scale(0.100000,-0.100000)"
fill="#000000" stroke="none">
<path d="M1898 4715 c-2 -1 -48 -5 -103 -9 -361 -23 -716 -156 -1015 -378 -93
-69 -295 -264 -355 -342 -283 -368 -420 -767 -419 -1216 1 -109 9 -226 19
-274 2 -11 6 -34 9 -51 57 -379 268 -772 570 -1063 144 -138 285 -237 468
-329 215 -108 437 -172 687 -198 185 -19 584 14 623 53 5 5 134 217 287 472
l278 463 -363 604 -362 603 51 0 c29 1 395 1 815 1 419 0 762 3 762 7 0 4 -7
43 -15 87 -98 511 -394 954 -836 1247 -207 138 -423 229 -657 277 -122 25
-155 30 -272 37 -52 3 -112 7 -132 8 -21 2 -39 2 -40 1z m-408 -1129 c8 -4 83
-106 165 -228 83 -121 198 -291 258 -377 59 -86 110 -163 114 -171 3 -8 17
-28 30 -44 73 -88 85 -180 35 -255 -36 -53 -83 -82 -140 -87 -55 -4 -124 24
-155 63 -18 22 -194 390 -434 903 -39 83 -43 128 -18 166 30 47 79 57 145 30z"/>
<path d="M2610 2831 c0 -6 17 -38 37 -73 21 -35 42 -71 48 -80 5 -10 121 -202
256 -427 l247 -409 -299 -496 -298 -496 32 -1 c207 -4 571 1 577 7 8 9 325
530 385 634 18 30 71 119 118 198 48 79 87 148 87 155 -1 14 23 -26 -319 542
l-274 455 -298 0 c-182 0 -299 -4 -299 -9z"/>
<path d="M3488 2808 c11 -18 146 -243 300 -499 l280 -466 -299 -496 c-164
-274 -295 -497 -291 -498 62 -5 596 2 602 8 5 4 51 80 104 168 53 88 100 167
105 175 141 231 377 626 379 637 2 7 -130 236 -294 508 l-297 495 -304 0 -305
0 20 -32z"/>
<path d="M4366 2793 c15 -27 32 -54 37 -61 5 -7 17 -25 26 -41 14 -24 93 -158
142 -239 9 -15 95 -158 192 -318 l175 -292 -180 -298 c-100 -165 -189 -312
-198 -329 -9 -16 -63 -106 -119 -198 -55 -93 -101 -169 -101 -170 0 -7 604 3
610 10 19 19 590 974 590 986 -1 6 -104 183 -230 392 -126 209 -259 431 -295
493 l-67 112 -304 0 -305 0 27 -47z"/>
</g>
</svg>
