<svg xmlns="http://www.w3.org/2000/svg" viewBox="0 0 2986.52 776.27">
    <defs>
        <style>.cls-1{fill:#ffffff;}.cls-2{fill:#ffffff;}</style>
    </defs>
    <path class="cls-1"
          d="M1303.34,379.2c.53,11,1.05,19.45,1.05,24.71,0,119.36-75.72,199.81-191.92,199.81-119.36,0-200.33-80.45-200.33-199.81S991.53,204.1,1112.47,204.1c55.74,0,101.48,14.2,137.76,43.12l-48.9,46.27c-20-18.4-49.42-27.87-87.81-27.87-74.14,0-124.62,56.26-124.62,138.29s50,138.29,124.1,138.29c64.67,0,107.26-40,113.57-101.48h-78l-33.74-61.52Z"
          transform="translate(-1.48 -1)"/>
    <path class="cls-1"
          d="M1329.16,456.49c0-87.28,61-146.7,152-146.7,89.91,0,151.43,59.42,151.43,146.7,0,87.81-61.52,147.23-151.43,147.23C1390.16,603.72,1329.16,544.3,1329.16,456.49Zm229.26,0c0-51-31-85.71-77.3-85.71-46.8,0-77.82,33.66-77.82,85.71s31,85.71,77.82,85.71C1527.39,542.2,1558.42,507.49,1558.42,456.49Z"
          transform="translate(-1.48 -1)"/>
    <path class="cls-2"
          d="M1964.27,318.84c-22.77-29-60-47.6-104-47.6-76.58,0-128.32,54.33-128.32,135.56,0,81.75,52.77,136.6,129.35,136.6q72.18,0,111.76-60.54l49.16,44c-36.74,50.19-92.62,77.1-162.47,77.1-120,1.55-204.9-80.72-203.35-197.66-1.55-115.9,83.3-197.13,202.83-195.58,62.61,0,113.31,20.7,151.08,61.57Z"
          transform="translate(-1.48 -1)"/>
    <path class="cls-2"
          d="M2314.87,423.36v175.4h-70.38v-164c0-35.7-25.87-60-65.19-60s-65.19,24.32-65.19,60v164h-70.37V195.18h70.37V353.51c20.69-25.36,52.25-38.81,89.51-38.81C2269.85,314.7,2314.87,358.16,2314.87,423.36Z"
          transform="translate(-1.48 -1)"/>
    <path class="cls-2"
          d="M2585.11,423.36v175.4h-67.78l-1.55-39.84c-18.63,28.46-50.19,45-84.86,45-58,0-96.75-34.67-96.75-86.41,0-53.29,47.6-89,119-89a322.8,322.8,0,0,1,61.58,6.21v-5.17c0-37.26-25.36-59.51-67.27-59.51-25.35,0-47.08,7.25-65.19,22.25l-30.53-41.39c30.53-24.84,65.71-36.22,113.83-36.22C2536.48,314.7,2585.11,357.65,2585.11,423.36Zm-70.36,59c-19.15-3.62-36.74-5.69-52.78-5.69-33.12,0-54.33,15-54.33,39.33,0,23.28,16,37.77,43.46,37.77C2484.22,553.75,2514.75,526.32,2514.75,482.34Z"
          transform="translate(-1.48 -1)"/>
    <path class="cls-2"
          d="M2604.87,233c0-24.32,17.59-41.91,41.91-41.91s41.39,17.59,41.39,41.91-17.07,41.39-41.39,41.39S2604.87,257.27,2604.87,233ZM2682,598.76h-70.37V319.87H2682Z"
          transform="translate(-1.48 -1)"/>
    <path class="cls-2"
          d="M2988,423.36v175.4h-70.37v-164c0-35.7-25.87-60-65.19-60s-65.2,24.32-65.2,60v164h-70.37V319.87h67.79l1,35.71c20.7-26.91,53.29-40.88,91.06-40.88C2943,314.7,2988,358.16,2988,423.36Z"
          transform="translate(-1.48 -1)"/>
    <circle class="cls-2" cx="217.41" cy="94.92" r="48.26"/>
    <circle class="cls-2" cx="96.51" cy="222.19" r="48.26"/>
    <circle class="cls-2" cx="48.26" cy="387.63" r="48.26"/>
    <circle class="cls-2" cx="96.51" cy="553.08" r="48.26"/>
    <circle class="cls-2" cx="217.41" cy="680.34" r="48.26"/>
    <path class="cls-1"
          d="M631.59,337.8a28.75,28.75,0,0,1,28.81,25.85c.81,8.39,1.24,16.88,1.24,25.48,0,157.45-128.11,285.54-285.56,285.51-22.54,0-43.24,15-49.24,36.72-9.56,34.6,16.21,65.91,49.3,65.91,214,0,388.13-174.12,388.13-388.14S590.15,1,376.14,1c-32.72,0-58.29,30.62-49.61,64.76,5.73,22.54,27.51,37.77,50.77,37.87,74.24.3,141.69,29.31,192.36,76.2,14.81,18.68,15.05,47-.87,65.94-18.16,21.57-57.44,22.17-79,4a6.78,6.78,0,0,0-1.11-.45,178.61,178.61,0,0,0-145.15-37.14C271.75,225,213.32,282.12,199.67,353.73,177.78,468.59,265.23,569,376.14,569A179.76,179.76,0,0,0,540.21,462.65a15.81,15.81,0,0,0-14.39-22.21H378.3c-22.42,0-44.05-13.21-50.83-34.59-11.24-35.43,14.91-68,48.67-68Z"
          transform="translate(-1.48 -1)"/>
</svg>
